<mxfile host="app.diagrams.net" agent="Mozilla/5.0 (Macintosh; Intel Mac OS X 10_15_7) AppleWebKit/537.36 (KHTML, like Gecko) Chrome/131.0.0.0 Safari/537.36" version="24.9.0">
  <diagram name="Page-1" id="5OX_eM4hPaFGO8NA0Lpq">
    <mxGraphModel dx="478" dy="262" grid="1" gridSize="10" guides="1" tooltips="1" connect="1" arrows="1" fold="1" page="1" pageScale="1" pageWidth="827" pageHeight="1169" math="0" shadow="0">
      <root>
        <mxCell id="0" />
        <mxCell id="1" parent="0" />
        <mxCell id="pqmeJ6zipMc1g1g2Bk4_-10" value="" style="html=1;shadow=1;dashed=0;align=center;verticalAlign=middle;shape=mxgraph.arrows2.jumpInArrow;dy=15;dx=38;arrowHead=55;rotation=-150;fillColor=#FFFF99;gradientColor=#FFFF66;gradientDirection=west;" vertex="1" parent="1">
          <mxGeometry x="220" y="370" width="140" height="100" as="geometry" />
        </mxCell>
        <mxCell id="pqmeJ6zipMc1g1g2Bk4_-2" value="" style="rounded=0;whiteSpace=wrap;html=1;fillColor=#f5f5f5;fontColor=#333333;strokeColor=#666666;shadow=1;" vertex="1" parent="1">
          <mxGeometry x="240" y="330" width="120" height="100" as="geometry" />
        </mxCell>
        <mxCell id="pqmeJ6zipMc1g1g2Bk4_-5" value="" style="group" vertex="1" connectable="0" parent="1">
          <mxGeometry x="240" y="380" width="50" height="30" as="geometry" />
        </mxCell>
        <mxCell id="pqmeJ6zipMc1g1g2Bk4_-3" value="" style="endArrow=none;html=1;rounded=0;" edge="1" parent="pqmeJ6zipMc1g1g2Bk4_-5">
          <mxGeometry width="50" height="50" relative="1" as="geometry">
            <mxPoint y="30" as="sourcePoint" />
            <mxPoint x="30" as="targetPoint" />
          </mxGeometry>
        </mxCell>
        <mxCell id="pqmeJ6zipMc1g1g2Bk4_-4" value="" style="endArrow=none;html=1;rounded=0;" edge="1" parent="pqmeJ6zipMc1g1g2Bk4_-5">
          <mxGeometry width="50" height="50" relative="1" as="geometry">
            <mxPoint x="30" as="sourcePoint" />
            <mxPoint x="50" y="20" as="targetPoint" />
          </mxGeometry>
        </mxCell>
        <mxCell id="pqmeJ6zipMc1g1g2Bk4_-6" value="" style="endArrow=none;html=1;rounded=0;" edge="1" parent="1">
          <mxGeometry width="50" height="50" relative="1" as="geometry">
            <mxPoint x="270" y="420" as="sourcePoint" />
            <mxPoint x="320" y="370" as="targetPoint" />
          </mxGeometry>
        </mxCell>
        <mxCell id="pqmeJ6zipMc1g1g2Bk4_-7" value="" style="endArrow=none;html=1;rounded=0;entryX=1;entryY=0.75;entryDx=0;entryDy=0;" edge="1" parent="1" target="pqmeJ6zipMc1g1g2Bk4_-2">
          <mxGeometry width="50" height="50" relative="1" as="geometry">
            <mxPoint x="320" y="370" as="sourcePoint" />
            <mxPoint x="370" y="320" as="targetPoint" />
          </mxGeometry>
        </mxCell>
        <mxCell id="pqmeJ6zipMc1g1g2Bk4_-8" value="" style="ellipse;whiteSpace=wrap;html=1;aspect=fixed;fillColor=#fff2cc;strokeColor=#d6b656;" vertex="1" parent="1">
          <mxGeometry x="270" y="340" width="20" height="20" as="geometry" />
        </mxCell>
        <mxCell id="pqmeJ6zipMc1g1g2Bk4_-9" value="" style="html=1;shadow=1;dashed=0;align=center;verticalAlign=middle;shape=mxgraph.arrows2.jumpInArrow;dy=15;dx=38;arrowHead=55;rotation=30;gradientColor=#FFFF99;gradientDirection=east;fillColor=#FFFF66;" vertex="1" parent="1">
          <mxGeometry x="240" y="290" width="140" height="100" as="geometry" />
        </mxCell>
        <mxCell id="pqmeJ6zipMc1g1g2Bk4_-13" value="" style="whiteSpace=wrap;html=1;aspect=fixed;strokeColor=none;fillColor=#7F00FF;" vertex="1" parent="1">
          <mxGeometry x="295" y="400" width="10" height="10" as="geometry" />
        </mxCell>
        <mxCell id="pqmeJ6zipMc1g1g2Bk4_-14" value="" style="whiteSpace=wrap;html=1;aspect=fixed;strokeColor=none;fillColor=#6666FF;" vertex="1" parent="1">
          <mxGeometry x="310" y="360" width="10" height="10" as="geometry" />
        </mxCell>
        <mxCell id="pqmeJ6zipMc1g1g2Bk4_-15" value="" style="whiteSpace=wrap;html=1;aspect=fixed;strokeColor=none;fillColor=#000099;" vertex="1" parent="1">
          <mxGeometry x="320" y="370" width="10" height="10" as="geometry" />
        </mxCell>
        <mxCell id="pqmeJ6zipMc1g1g2Bk4_-16" value="" style="whiteSpace=wrap;html=1;aspect=fixed;strokeColor=none;fillColor=#4C0099;" vertex="1" parent="1">
          <mxGeometry x="305" y="410" width="10" height="10" as="geometry" />
        </mxCell>
      </root>
    </mxGraphModel>
  </diagram>
</mxfile>
